<?xml version="1.0" standalone="no"?><!DOCTYPE svg PUBLIC "-//W3C//DTD SVG 1.1//EN" "http://www.w3.org/Graphics/SVG/1.1/DTD/svg11.dtd"><svg t="1733647747916" class="icon" viewBox="0 0 1024 1024" version="1.1" xmlns="http://www.w3.org/2000/svg" p-id="6589" xmlns:xlink="http://www.w3.org/1999/xlink" width="200" height="200"><path d="M565.552 840.48l0.08-0.08L207.36 512l358.272-328.416-0.064-0.08c6.368-5.84 10.432-14.176 10.432-23.504a32 32 0 0 0-32-32c-8.336 0-15.856 3.264-21.552 8.496l-0.064-0.08-384 352 0.064 0.08A31.76 31.76 0 0 0 128 512c0 9.344 4.064 17.664 10.448 23.52l-0.08 0.08 384 352 0.08-0.08c5.696 5.216 13.216 8.48 21.552 8.48a32 32 0 0 0 32-32c0-9.344-4.064-17.664-10.448-23.52z" fill="#777777" p-id="6590"></path><path d="M672 480H416a32 32 0 1 0 0 64h256a32 32 0 1 0 0-64zM864 480h-64a32 32 0 1 0 0 64h64a32 32 0 1 0 0-64z" fill="#777777" p-id="6591"></path></svg>