<?xml version="1.0" standalone="no"?><!DOCTYPE svg PUBLIC "-//W3C//DTD SVG 1.1//EN" "http://www.w3.org/Graphics/SVG/1.1/DTD/svg11.dtd"><svg t="1732456079643" class="icon" viewBox="0 0 1024 1024" version="1.1" xmlns="http://www.w3.org/2000/svg" p-id="2283" xmlns:xlink="http://www.w3.org/1999/xlink" width="200" height="200"><path d="M136.776 849.08a381.336 94.504 0 1 0 762.672 0 381.336 94.504 0 1 0-762.672 0Z" fill="#B8CBCD" p-id="2284"></path><path d="M336.776 823.544c0 41.976 51.184 76 172.448 76 121.248 0 179.552-34.024 179.552-76l40-432c0-41.976-98.304-76-219.552-76-121.256 0-219.56 34.024-219.56 76l47.112 432z" fill="#F7BB83" p-id="2285"></path><path d="M509.216 923.544c-174.528 0-195.808-67.768-196.432-98.56l-46.992-430.832a23.6 23.6 0 0 1-0.144-2.6c0-68.704 126.256-100 243.56-100s243.552 31.296 243.552 100c0 0.744-0.032 1.48-0.104 2.208l-39.896 431.04c-0.544 24.816-17.912 98.744-203.544 98.744zM313.712 390.768l46.92 430.168c0.096 0.864 0.144 1.736 0.144 2.6 0 23.984 38.872 52 148.448 52 102.128 0 155.552-26.16 155.552-52 0-0.744 0.032-1.48 0.104-2.208l39.856-430.448c-1.92-15.48-70.296-51.344-195.512-51.344-124.912 0.008-193.256 35.688-195.512 51.232z" fill="#6E4123" p-id="2286"></path><path d="M719.696 448.296c68.672-20.528 89.08-58.872 89.08-92.752v-100c0-61.856-113.752-112-292.448-112s-291.552 50.144-291.552 112v100c0 34.504 0 52.04 74.448 87.456" fill="#FFFFFF" p-id="2287"></path><path d="M714.912 472.304a24.008 24.008 0 0 1-6.864-47c32.832-9.816 71.952-29.88 71.952-69.76v-100c0-35.488-85.32-88-268.448-88-182.52 0-267.552 52.512-267.552 88v100c0 28.328 0 36.872 60.76 65.784a24 24 0 0 1-20.624 43.344c-79.8-37.96-88.136-62.4-88.136-109.128v-100c0-81.344 126.816-136 315.552-136 189.272 0 316.448 54.656 316.448 136v100c0 31.368-13.8 88.12-106.2 115.744a24.024 24.024 0 0 1-6.888 1.016z" fill="#6E4123" p-id="2288"></path><path d="M517.216 75.544c-121.256 0-219.56 34.024-219.56 76v72-12c0 41.976 98.304 76 219.56 76 121.248 0 219.552-34.024 219.552-76v12-72c0.008-41.976-98.296-76-219.552-76zM314.936 443.544c55.264 15.24 125.232 24.376 201.392 24.376 71.952 0 138.392-8.144 192.128-21.888" fill="#FFFFFF" p-id="2289"></path><path d="M516.328 483.92c-75.352 0-146.464-8.624-205.648-24.952a16 16 0 0 1 8.512-30.848c55.64 15.344 125.656 23.8 197.136 23.8 68.408 0 133.472-7.4 188.16-21.392a15.984 15.984 0 0 1 19.472 11.528 16.016 16.016 0 0 1-11.528 19.472c-57.248 14.648-125.064 22.392-196.104 22.392zM516.328 379.544c-173.568 0-299.552-57.192-299.552-136a16 16 0 0 1 32 0c0 51.12 100.08 104 267.552 104 165.528 0 264.448-52.88 264.448-104a16 16 0 0 1 32 0c0 80.072-121.904 136-296.448 136zM735.88 187.544a24 24 0 0 1-24-24c0-15.088-68.52-52-195.552-52s-195.552 36.912-195.552 52a24 24 0 1 1-48 0c0-68.704 126.248-100 243.552-100s243.552 31.296 243.552 100a24 24 0 0 1-24 24z" fill="#6E4123" p-id="2290"></path><path d="M516.328 315.544c-117.056 0-235.552-31.6-235.552-92v-72a16 16 0 0 1 32 0v72c0 24.464 79.296 60 203.552 60s203.552-35.536 203.552-60v-72a16 16 0 0 1 32 0v72c0 60.4-118.496 92-235.552 92z" fill="#6E4123" p-id="2291"></path><path d="M517.216 231.544c-117.064 0-235.56-31.6-235.56-92a16 16 0 0 1 32 0c0 24.464 79.296 60 203.56 60 124.256 0 203.552-35.536 203.552-60a16 16 0 0 1 32 0c0.008 60.4-118.496 92-235.552 92z" fill="#6E4123" p-id="2292"></path><path d="M336.112 694.912c0 33.144 84.48 59.336 180.216 59.336s177.784-22.856 177.784-56l15.328-176c0 41.976-71.848 76-193.112 76-121.256 0-202.888-36.696-202.888-78.664l22.672 175.328z" fill="#FFFFFF" p-id="2293"></path><path d="M516.328 770.248c-96.736 0-194.648-25.472-196.2-74.168l-21.368-165.24a49.28 49.28 0 0 1-1.32-11.256 16 16 0 0 1 31.864-2.056l0.928 7.16c7.464 24.184 69.36 57.56 186.096 57.56 108.792 0 170.992-28.008 176.688-55.864l0.488-5.52c0.744-8.528 8.16-14.872 16.632-14.592a16.008 16.008 0 0 1 15.304 15.984c0 2.784-0.224 5.584-0.664 8.328L710.104 699.04c-1.024 49.176-97.832 71.208-193.776 71.208zM336.904 576.336l15.072 116.52c0.088 0.68 0.136 1.368 0.136 2.056 0 14.88 63.952 43.336 164.216 43.336 104.68 0 161.784-26.424 161.784-40 0-0.464 0.024-0.928 0.064-1.392l10.288-118.16c-35.856 22.632-95.92 35.544-172.136 35.544-76.84 0.008-140.848-14.224-179.424-37.904z" fill="#6E4123" p-id="2294"></path></svg>