<?xml version="1.0" standalone="no"?><!DOCTYPE svg PUBLIC "-//W3C//DTD SVG 1.1//EN" "http://www.w3.org/Graphics/SVG/1.1/DTD/svg11.dtd"><svg t="1732456191668" class="icon" viewBox="0 0 1024 1024" version="1.1" xmlns="http://www.w3.org/2000/svg" p-id="2757" xmlns:xlink="http://www.w3.org/1999/xlink" width="200" height="200"><path d="M904.776 316c0 66.272-53.728 120-120 120h-520c-66.272 0-120-53.728-120-120 0-66.272 53.728-120 120-120h520c66.272 0 120 53.728 120 120z" fill="#F6E89A" p-id="2758"></path><path d="M784.776 460h-520c-79.4 0-144-64.6-144-144s64.6-144 144-144h520c79.4 0 144 64.6 144 144s-64.6 144-144 144z m-520-240c-52.936 0-96 43.064-96 96s43.064 96 96 96h520c52.936 0 96-43.064 96-96s-43.064-96-96-96h-520z" fill="#6E4123" p-id="2759"></path><path d="M156.64 805.496a361.616 94.504 0 1 0 723.232 0 361.616 94.504 0 1 0-723.232 0Z" fill="#B8CBCD" p-id="2760"></path><path d="M864.776 588h-688c-79.4 0-144-64.6-144-144a143.552 143.552 0 0 1 99.976-137.136 24 24 0 1 1 14.664 45.696 95.704 95.704 0 0 0-66.64 91.432c0 52.936 43.064 96 96 96h688c52.936 0 96-43.064 96-96 0-41.408-26.368-78.016-65.624-91.104a23.992 23.992 0 0 1-15.184-30.352 23.952 23.952 0 0 1 30.352-15.176 143.8 143.8 0 0 1 98.456 136.632c0 79.408-64.6 144.008-144 144.008z" fill="#783741" p-id="2761"></path><path d="M984.776 444c0 66.272-53.728 120-120 120h-688c-66.272 0-120-53.728-120-120 0-66.272 53.728-120 120-120h688c66.272 0 120 53.728 120 120z" fill="#FFBAB0" p-id="2762"></path><path d="M864.776 580h-688c-74.992 0-136-61.008-136-136s61.008-136 136-136h688c74.992 0 136 61.008 136 136s-61.008 136-136 136z m-688-240c-57.344 0-104 46.656-104 104s46.656 104 104 104h688c57.344 0 104-46.656 104-104s-46.656-104-104-104h-688z" fill="#783741" p-id="2763"></path><path d="M904.776 628c0 66.272-53.728 120-120 120h-520c-66.272 0-120-53.728-120-120 0-66.272 53.728-120 120-120h520c66.272 0 120 53.728 120 120z" fill="#F6E89A" p-id="2764"></path><path d="M784.776 772h-520c-79.4 0-144-64.6-144-144s64.6-144 144-144h520c79.4 0 144 64.6 144 144s-64.6 144-144 144z m-520-240c-52.936 0-96 43.064-96 96s43.064 96 96 96h520c52.936 0 96-43.064 96-96s-43.064-96-96-96h-520z" fill="#6E4123" p-id="2765"></path><path d="M440.776 692a15.936 15.936 0 0 1-11.312-4.688l-79.2-79.192-79.192 79.192a16 16 0 1 1-22.624-22.624l90.504-90.512a16 16 0 0 1 22.624 0l90.512 90.504a16 16 0 0 1-11.312 27.32z" fill="#6E4123" p-id="2766"></path><path d="M621.792 692a15.936 15.936 0 0 1-11.312-4.688l-79.2-79.192-79.192 79.192a16 16 0 1 1-22.624-22.624l90.504-90.512a16 16 0 0 1 22.624 0l90.512 90.504a16 16 0 0 1-11.312 27.32z" fill="#6E4123" p-id="2767"></path><path d="M800.776 692a15.936 15.936 0 0 1-11.312-4.688l-79.2-79.192-79.192 79.192a16 16 0 1 1-22.624-22.624l90.504-90.512a16 16 0 0 1 22.624 0l90.512 90.504a16 16 0 0 1-11.312 27.32z" fill="#6E4123" p-id="2768"></path><path d="M288.776 430.664a16 16 0 0 1-16-16c0-11.76-9.568-21.328-21.336-21.328s-21.336 9.568-21.336 21.328a16 16 0 0 1-32 0c0-29.408 23.928-53.328 53.336-53.328s53.336 23.92 53.336 53.328a16 16 0 0 1-16 16z" fill="#F6E89A" p-id="2769"></path><path d="M326.104 471.192a53.4 53.4 0 0 1-53.336-53.336 16 16 0 0 1 32 0c0 11.768 9.568 21.336 21.336 21.336s21.336-9.568 21.336-21.336a16 16 0 0 1 32 0 53.392 53.392 0 0 1-53.336 53.336z" fill="#F6E89A" p-id="2770"></path><path d="M437.792 430.664a16 16 0 0 1-16-16c0-11.76-9.568-21.328-21.336-21.328s-21.336 9.568-21.336 21.328a16 16 0 0 1-32 0c0-29.408 23.928-53.328 53.336-53.328s53.336 23.92 53.336 53.328a16 16 0 0 1-16 16z" fill="#F6E89A" p-id="2771"></path><path d="M475.128 471.192a53.4 53.4 0 0 1-53.336-53.336 16 16 0 0 1 32 0c0 11.768 9.568 21.336 21.336 21.336s21.336-9.568 21.336-21.336a16 16 0 0 1 32 0 53.4 53.4 0 0 1-53.336 53.336z" fill="#F6E89A" p-id="2772"></path><path d="M587.128 430.664a16 16 0 0 1-16-16c0-11.76-9.568-21.328-21.336-21.328s-21.336 9.568-21.336 21.328a16 16 0 0 1-32 0c0-29.408 23.928-53.328 53.336-53.328s53.336 23.92 53.336 53.328a16 16 0 0 1-16 16z" fill="#F6E89A" p-id="2773"></path><path d="M624.464 471.192a53.4 53.4 0 0 1-53.336-53.336 16 16 0 0 1 32 0 21.36 21.36 0 0 0 21.336 21.336 21.36 21.36 0 0 0 21.336-21.336 16 16 0 0 1 32 0 53.4 53.4 0 0 1-53.336 53.336z" fill="#F6E89A" p-id="2774"></path><path d="M736.464 430.664a16 16 0 0 1-16-16 21.36 21.36 0 0 0-21.336-21.328 21.36 21.36 0 0 0-21.336 21.328 16 16 0 0 1-32 0c0-29.408 23.928-53.328 53.336-53.328s53.336 23.92 53.336 53.328a16 16 0 0 1-16 16z" fill="#F6E89A" p-id="2775"></path><path d="M773.792 471.192a53.4 53.4 0 0 1-53.336-53.336 16 16 0 0 1 32 0c0 11.768 9.568 21.336 21.336 21.336s21.336-9.568 21.336-21.336a16 16 0 0 1 32 0 53.4 53.4 0 0 1-53.336 53.336z" fill="#F6E89A" p-id="2776"></path></svg>