<?xml version="1.0" standalone="no"?><!DOCTYPE svg PUBLIC "-//W3C//DTD SVG 1.1//EN" "http://www.w3.org/Graphics/SVG/1.1/DTD/svg11.dtd"><svg t="1732456085479" class="icon" viewBox="0 0 1024 1024" version="1.1" xmlns="http://www.w3.org/2000/svg" p-id="2440" xmlns:xlink="http://www.w3.org/1999/xlink" width="200" height="200"><path d="M132.776 869.08a381.336 94.504 0 1 0 762.672 0 381.336 94.504 0 1 0-762.672 0Z" fill="#B8CBCD" p-id="2441"></path><path d="M848.864 648.664c-143.984 143.976-375.376 338.64-574.824 139.2-223.912-223.92-27.176-430.808 116.808-574.792" fill="#F7BB83" p-id="2442"></path><path d="M462.24 897.096c-75.048 0-143.712-30.808-205.168-92.256-105.392-105.408-133.944-220.904-84.856-343.28 39.424-98.288 121.24-185.032 201.672-265.456a23.984 23.984 0 0 1 33.936 0 23.984 23.984 0 0 1 0 33.936C241.44 396.424 95.368 575.24 291.016 770.896c178 177.984 382.552 19.12 540.88-139.208a24 24 0 0 1 33.936 33.944c-65.912 65.912-166.072 158.728-274.4 203.584-44.888 18.592-88 27.88-129.192 27.88z" fill="#6E4123" p-id="2443"></path><path d="M493.528 872.816c-66.592 0-128.536-24.048-185.16-72.048-90.456-76.688-138.648-175.096-132.224-269.976 5.112-75.368 39.728-150.472 108.944-236.344a24 24 0 1 1 37.376 30.12C259.72 402.4 228.44 468.96 224.032 534.032c-5.384 79.512 36.672 163.384 115.384 230.12 132.648 112.472 297.192 67.04 503.048-138.872a24 24 0 0 1 33.952 33.944c-93.936 93.96-178.088 155.2-257.248 187.232-43.472 17.584-85.408 26.36-125.64 26.36z" fill="#6E4123" p-id="2444"></path><path d="M767.928269 279.202828a318.616 198.616 44.999 1 0-280.880538 280.890344 318.616 198.616 44.999 1 0 280.880538-280.890344Z" fill="#B2EDA6" p-id="2445"></path><path d="M744.624 709.16c-89.192 0-191.832-49.384-274.552-132.104C334.224 441.2 296.96 265.64 385.224 177.376c30.912-30.92 74.176-47.256 125.128-47.256 89.192 0 191.832 49.384 274.544 132.112 63.312 63.304 107.552 138.592 124.584 211.984 17.968 77.448 3.856 144.104-39.736 187.688-30.896 30.92-74.176 47.256-125.12 47.256z m-234.272-531.04c-37.936 0-69.472 11.48-91.184 33.192-66.92 66.928-28.072 218.872 84.84 331.808 72.824 72.816 165.016 118.04 240.616 118.04 37.936 0 69.472-11.48 91.184-33.192 31.44-31.44 41-82.192 26.912-142.904-15.024-64.768-54.72-131.848-111.768-188.888-72.8-72.824-165-118.056-240.6-118.056z" fill="#3C663E" p-id="2446"></path><path d="M672.801593 374.332918a98.632 60.32 44.999 1 0-85.303873 85.306851 98.632 60.32 44.999 1 0 85.303873-85.306851Z" fill="#FFFFFF" p-id="2447"></path><path d="M667.464 514.752c-29.736 0-63.856-16.368-91.288-43.792-20.68-20.68-35.264-45.32-41.064-69.368-6.48-26.848-1.512-50.168 13.968-65.648 10.928-10.936 26.056-16.712 43.744-16.712 29.736 0 63.856 16.368 91.28 43.8 45.456 45.448 57.344 104.752 27.088 135.016-10.936 10.928-26.048 16.704-43.728 16.704z m-74.64-163.52c-9.144 0-16.248 2.472-21.12 7.336-9.848 9.848-7.664 26.488-5.488 35.52 4.368 18.136 16.24 37.904 32.576 54.24 21.232 21.232 47.544 34.416 68.664 34.416 9.136 0 16.232-2.464 21.104-7.336 14.824-14.824 7.344-55.336-27.088-89.768-21.232-21.216-47.536-34.408-68.648-34.408zM793.408 591.584a15.936 15.936 0 0 1-11.312-4.688l-46.824-46.816a16 16 0 1 1 22.624-22.624l46.824 46.816a16 16 0 0 1-11.312 27.312zM671.216 624.488c-7.696 0-14.48-5.56-15.776-13.4l-8.864-53.816a16 16 0 0 1 31.576-5.208l8.864 53.816a16 16 0 0 1-15.8 18.608zM528.12 542.408a16 16 0 0 1-11.312-27.312l31.792-31.8a16 16 0 1 1 22.624 22.632l-31.792 31.8a16 16 0 0 1-11.312 4.68zM605.84 302.16a16.008 16.008 0 0 1-15.776-13.408l-8.856-53.824a16 16 0 1 1 31.576-5.192l8.856 53.824a16 16 0 0 1-15.8 18.6zM708.296 362.216a16 16 0 0 1-11.312-27.32l31.816-31.8a16 16 0 0 1 22.624 22.632l-31.816 31.8c-3.12 3.12-7.216 4.688-11.312 4.688zM488.48 404.776a16.08 16.08 0 0 1-2.608-0.216l-53.832-8.856a16 16 0 1 1 5.192-31.576l53.832 8.856a16 16 0 0 1-2.584 31.792zM819.864 459.296a16.08 16.08 0 0 1-2.608-0.216l-53.832-8.856a16 16 0 1 1 5.192-31.576l53.832 8.856a16 16 0 0 1-2.584 31.792zM518.368 316.544a15.936 15.936 0 0 1-11.312-4.688l-44.32-44.328a16 16 0 0 1 22.624-22.632l44.32 44.328a16 16 0 0 1-11.312 27.32z" fill="#3C663E" p-id="2448"></path></svg>