<?xml version="1.0" standalone="no"?><!DOCTYPE svg PUBLIC "-//W3C//DTD SVG 1.1//EN" "http://www.w3.org/Graphics/SVG/1.1/DTD/svg11.dtd"><svg t="1732456095720" class="icon" viewBox="0 0 1024 1024" version="1.1" xmlns="http://www.w3.org/2000/svg" p-id="2594" xmlns:xlink="http://www.w3.org/1999/xlink" width="200" height="200"><path d="M154.392 877.08a381.336 94.504 0 1 0 762.672 0 381.336 94.504 0 1 0-762.672 0Z" fill="#B8CBCD" p-id="2595"></path><path d="M139.584 588.232c-23.44 23.44-28.12 56.744-10.456 74.408l230.2 230.2c17.656 17.656 50.968 12.984 74.408-10.456l469.512-469.512c23.432-23.432 28.112-56.744 10.456-74.4L683.504 108.264c-17.656-17.664-50.968-12.976-74.4 10.456l-469.52 469.512z" fill="#F6E89A" p-id="2596"></path><path d="M381.44 933.2c-17.416 0-33.296-6.296-44.728-17.736L106.512 685.264c-13.8-13.8-19.984-33.968-16.984-55.344 2.696-19.176 12.432-38 27.432-52.992l469.52-469.52c17.904-17.912 41.104-28.184 63.616-28.184 17.408 0 33.288 6.296 44.72 17.736l230.208 230.208c13.8 13.792 19.984 33.96 16.976 55.344-2.696 19.176-12.44 38-27.432 52.992l-469.52 469.52c-17.904 17.904-41.096 28.176-63.608 28.176zM650.096 127.216c-9.736 0-20.832 5.28-29.68 14.128l-469.52 469.52c-14.56 14.568-17.52 33.376-10.448 40.464l230.2 230.2c3.04 3.032 7.536 3.672 10.792 3.672 9.736 0 20.832-5.28 29.672-14.12l469.52-469.52c7.552-7.56 12.6-16.936 13.832-25.736 0.52-3.712 0.776-10.56-3.384-14.728L660.88 130.888c-3.04-3.032-7.544-3.672-10.784-3.672z" fill="#8D4520" p-id="2597"></path><path d="M742.04 279.936m-136 0a136 136 0 1 0 272 0 136 136 0 1 0-272 0Z" fill="#B2EDA6" p-id="2598"></path><path d="M742.04 439.936a158.952 158.952 0 0 1-113.144-46.864c-62.384-62.384-62.384-163.88 0-226.264 30.216-30.216 70.408-46.856 113.144-46.856s82.912 16.64 113.136 46.856c62.384 62.384 62.384 163.88 0 226.264a158.944 158.944 0 0 1-113.136 46.864z m0-271.992a111.28 111.28 0 0 0-79.2 32.8c-43.664 43.672-43.664 114.72 0 158.392 21.16 21.16 49.288 32.808 79.2 32.808s58.04-11.648 79.192-32.808c43.664-43.672 43.664-114.72 0-158.392a111.264 111.264 0 0 0-79.192-32.8z" fill="#3C663E" p-id="2599"></path><path d="M691.128 296.912m-48 0a48 48 0 1 0 96 0 48 48 0 1 0-96 0Z" fill="#FFBAB0" p-id="2600"></path><path d="M691.128 360.904a63.552 63.552 0 0 1-45.248-18.744c-12.096-12.088-18.752-28.168-18.752-45.256s6.656-33.168 18.752-45.248a63.584 63.584 0 0 1 45.248-18.752c17.104 0 33.168 6.664 45.248 18.752 24.96 24.952 24.96 65.552 0.008 90.504a63.6 63.6 0 0 1-45.256 18.744z m0-96c-8.544 0-16.576 3.328-22.624 9.376s-9.376 14.08-9.376 22.624 3.328 16.584 9.376 22.632a31.792 31.792 0 0 0 22.624 9.368 31.816 31.816 0 0 0 22.632-9.368 32.032 32.032 0 0 0-0.008-45.256 31.784 31.784 0 0 0-22.624-9.376z" fill="#783741" p-id="2601"></path><path d="M764.672 359.136m-48 0a48 48 0 1 0 96 0 48 48 0 1 0-96 0Z" fill="#FFBAB0" p-id="2602"></path><path d="M764.664 423.128a63.552 63.552 0 0 1-45.248-18.744c-12.096-12.088-18.752-28.168-18.752-45.256s6.656-33.168 18.752-45.248a63.592 63.592 0 0 1 45.256-18.752c17.096 0 33.168 6.664 45.248 18.752s18.744 28.16 18.744 45.248c0 17.104-6.656 33.168-18.744 45.256s-28.16 18.744-45.256 18.744z m0.008-96c-8.552 0-16.584 3.328-22.632 9.376s-9.376 14.08-9.376 22.624 3.328 16.584 9.376 22.632a31.792 31.792 0 0 0 22.624 9.368 31.816 31.816 0 0 0 22.632-9.368 31.8 31.8 0 0 0 9.368-22.632 31.792 31.792 0 0 0-9.368-22.624 31.784 31.784 0 0 0-22.624-9.376z" fill="#783741" p-id="2603"></path><path d="M866.488 415.704l-181.016-22.632-96.168-243.248-135.768 135.768L725.072 557.12l67.88-67.88 73.536-73.536" fill="#F6E89A" p-id="2604"></path><path d="M696.592 405.976c-7.768 0-15.376-3.76-20-10.696C572.216 238.512 581.92 124.032 582.384 119.232a24.048 24.048 0 0 1 26.2-21.576 24 24 0 0 1 21.584 26.088c-0.12 1.48-7.504 103.936 86.376 244.928a24 24 0 0 1-19.952 37.304z" fill="#8D4520" p-id="2605"></path><path d="M893.824 431.752c-48.256 0-322.816-6.064-457.248-140.504a16 16 0 0 1 0-22.624L594.96 110.232a16 16 0 1 1 22.624 22.624l-146.72 146.728c139.912 123.744 426.32 120.288 429.28 120.12h0.288a16 16 0 0 1 0.288 32 412.32 412.32 0 0 1-6.896 0.048z" fill="#8D4520" p-id="2606"></path><path d="M408.288 274.28L747.696 613.68 498.8 862.584 159.392 523.176z" fill="#FFBAB0" p-id="2607"></path><path d="M498.792 886.592a23.92 23.92 0 0 1-16.968-7.032L142.416 540.144a23.984 23.984 0 0 1 0-33.936l248.896-248.896a23.984 23.984 0 0 1 33.936 0l339.416 339.416a23.984 23.984 0 0 1 0 33.936L515.76 879.56a23.928 23.928 0 0 1-16.968 7.032zM193.32 523.176l305.472 305.48 214.968-214.96-305.48-305.48-214.96 214.96z" fill="#783741" p-id="2608"></path><path d="M453.544 568.432m-104 0a104 104 0 1 0 208 0 104 104 0 1 0-208 0Z" fill="#FFFFFF" p-id="2609"></path><path d="M453.544 688.432c-32.056 0-62.184-12.488-84.848-35.152s-35.152-52.8-35.152-84.848 12.488-62.184 35.152-84.848 52.8-35.152 84.848-35.152 62.184 12.488 84.848 35.152c46.784 46.792 46.784 122.92 0 169.704a119.208 119.208 0 0 1-84.848 35.144z m0-208a87.44 87.44 0 0 0-62.224 25.776 87.464 87.464 0 0 0-25.776 62.224c0 23.504 9.152 45.608 25.776 62.224a87.4 87.4 0 0 0 62.224 25.776c23.504 0 45.6-9.16 62.224-25.776 34.304-34.312 34.304-90.144 0-124.456a87.488 87.488 0 0 0-62.224-25.768z" fill="#783741" p-id="2610"></path><path d="M182.016 579.744l260.208 260.208-22.624 22.632-260.208-260.208z" fill="#8D4520" p-id="2611"></path></svg>