<?xml version="1.0" standalone="no"?><!DOCTYPE svg PUBLIC "-//W3C//DTD SVG 1.1//EN" "http://www.w3.org/Graphics/SVG/1.1/DTD/svg11.dtd"><svg t="1732456072169" class="icon" viewBox="0 0 1024 1024" version="1.1" xmlns="http://www.w3.org/2000/svg" p-id="1960" xmlns:xlink="http://www.w3.org/1999/xlink" width="200" height="200"><path d="M120.776 905.08a381.336 94.504 0 1 0 762.672 0 381.336 94.504 0 1 0-762.672 0Z" fill="#B8CBCD" p-id="1961"></path><path d="M246.096 315.584a254.208 52 0 1 0 508.416 0 254.208 52 0 1 0-508.416 0Z" fill="#FFFFFF" p-id="1962"></path><path d="M246.096 315.584c0-28.72 113.816-52 254.208-52 140.4 0 254.208 23.28 254.208 52l-73.744 540c0 28.72-40.072 52-180.472 52-140.392 0-187.528-23.28-187.528-52l-66.672-540z" fill="#B9E3ED" p-id="1963"></path><path d="M725.04 575.584l-44.264 280c0 28.72-40.072 52-180.472 52-140.392 0-187.528-23.28-187.528-52l-37.208-280s58.952-56 228.424-56c154.736 0 221.048 56 221.048 56" fill="#FFFFFF" p-id="1964"></path><path d="M504 599.592a16 16 0 0 1-15.48-20.072l88.416-336a16.008 16.008 0 0 1 30.952 8.144l-88.424 336A16.032 16.032 0 0 1 504 599.592z" fill="#324654" p-id="1965"></path><path d="M639.064 879.584a24 24 0 0 1-23.808-27.248l73.744-540a24.08 24.08 0 0 1 27.032-20.536 24 24 0 0 1 20.528 27.024l-73.744 540a24 24 0 0 1-23.752 20.76z" fill="#324654" p-id="1966"></path><path d="M599.792 276a23.992 23.992 0 0 1-22.936-31.096l58.944-190.672a24 24 0 0 1 22.928-16.912h147.368c13.256 0 24 10.744 24 24S817.256 84 804 84h-128l-53.288 175.08a24 24 0 0 1-22.92 16.92z" fill="#324654" p-id="1967"></path><path d="M408.776 751.584m-24 0a24 24 0 1 0 48 0 24 24 0 1 0-48 0Z" fill="#324654" p-id="1968"></path><path d="M546.096 723.584m-20 0a20 20 0 1 0 40 0 20 20 0 1 0-40 0Z" fill="#324654" p-id="1969"></path><path d="M510.096 815.584m-16 0a16 16 0 1 0 32 0 16 16 0 1 0-32 0Z" fill="#324654" p-id="1970"></path><path d="M447.168 897.76c-46.76-9.448-64.872-24.816-64.872-42.176l-69.736-540c0-13.648 26.896-26.064 70.88-35.336 0.112-2.704 0.36-5.336 0.728-7.888-71.184 9.336-118.064 25.208-118.064 43.224l69.736 540c0 22.408 30.016 41.504 112.936 48.816-0.552-2.224-1.104-4.432-1.608-6.64z" fill="#FFFFFF" p-id="1971"></path><path d="M500.304 931.584c-90.056 0-209.544-7.744-211.504-74.328l-66.52-538.728a24.128 24.128 0 0 1-0.176-2.944c0-70.52 212.944-76 278.208-76s278.208 5.48 278.208 76c0 1.088-0.072 2.168-0.216 3.248l-73.544 538.584c-1.984 65.68-110.128 74.168-204.456 74.168zM270.816 319.92l65.784 532.728c0.12 0.968 0.176 1.952 0.176 2.936 0 0.28 12.184 28 163.528 28 152.208 0 156.472-27.72 156.472-28 0-1.088 0.072-2.168 0.216-3.248l72.72-532.48c-17.928-12.144-97.472-32.272-229.408-32.272-132.152 0-211.744 20.2-229.488 32.336z" fill="#324654" p-id="1972"></path><path d="M500.304 383.584c-27.656 0-270.208-1.904-270.208-68a16 16 0 0 1 31.944-1.336c9.6 13.664 95.64 37.336 238.264 37.336 142.632 0 228.664-23.664 238.264-37.336a16 16 0 0 1 31.944 1.336c0.008 66.096-242.552 68-270.208 68zM725.04 575.584a16 16 0 0 1-15.736-13.088c-11.92-11.232-92.52-30.912-214.104-30.912-121.56 0-189.48 19.576-199.248 30.192a16 16 0 0 1-31.848-2.192c0-57.112 192.512-60 231.104-60 25.168 0 245.832 1.688 245.832 60a16 16 0 0 1-16 16z" fill="#324654" p-id="1973"></path><path d="M509.936 635.584c-25.168 0-245.832-1.688-245.832-60a16 16 0 0 1 31.736-2.912c11.92 11.232 92.52 30.912 214.104 30.912 121.56 0 189.48-19.576 199.248-30.192a16 16 0 0 1 31.848 2.192c0 57.112-192.504 60-231.104 60z" fill="#324654" p-id="1974"></path></svg>