<?xml version="1.0" standalone="no"?><!DOCTYPE svg PUBLIC "-//W3C//DTD SVG 1.1//EN" "http://www.w3.org/Graphics/SVG/1.1/DTD/svg11.dtd"><svg t="1732456069303" class="icon" viewBox="0 0 1024 1024" version="1.1" xmlns="http://www.w3.org/2000/svg" p-id="1799" xmlns:xlink="http://www.w3.org/1999/xlink" width="200" height="200"><path d="M148 885.496a381.336 94.504 0 1 0 762.672 0 381.336 94.504 0 1 0-762.672 0Z" fill="#B8CBCD" p-id="1800"></path><path d="M502.856 806.992c-119.728 3.336-210.096 27.472-222.656 56.904h-1.656c0 1.264 0.168 2.512 0.432 3.76a18.064 18.064 0 0 0-0.432 3.76h1.656c13.536 31.728 112.136 56.352 245.8 56.352s232.264-24.624 245.792-56.352h1.656c0-1.264-0.168-2.512-0.432-3.76 0.264-1.24 0.432-2.496 0.432-3.76h-1.656c-12.544-29.424-93.664-53.544-211.968-56.896" fill="#FFBAB0" p-id="1801"></path><path d="M526 951.768c-107.88 0-229.712-16.432-262.624-61.76a23.96 23.96 0 0 1-8.832-18.592c0-1.248 0.056-2.496 0.176-3.76a39.544 39.544 0 0 1-0.176-3.76 23.92 23.92 0 0 1 8.8-18.568c37.968-52.536 190.808-60.984 238.84-62.328 13.144-0.584 24.288 10.072 24.664 23.32a24 24 0 0 1-23.328 24.664c-110.848 3.088-175.616 23.048-195.432 36.792 21.08 14.728 94.208 35.992 217.904 35.992 124.12 0 197.312-21.408 218.128-36.176-17.056-12.416-72.592-33.416-184.984-36.592a24 24 0 0 1-23.312-24.672c0.376-13.24 11.52-23.808 24.672-23.312 45.696 1.296 191.264 9.632 228.32 62.464a23.944 23.944 0 0 1 8.624 18.432c0 1.248-0.056 2.496-0.176 3.76 0.12 1.264 0.176 2.504 0.176 3.76 0 7.504-3.448 14.2-8.832 18.6-32.912 45.304-154.736 61.736-262.608 61.736z" fill="#783741" p-id="1802"></path><path d="M484 606.992h88v248h-88z" fill="#FFBAB0" p-id="1803"></path><path d="M572 876h-88a24 24 0 0 1-24-24v-248a24 24 0 0 1 24-24h88a24 24 0 0 1 24 24v248a24 24 0 0 1-24 24z m-64-48h40v-200h-40v200z" fill="#783741" p-id="1804"></path><path d="M812 166.992v112c0 181.152-114.848 328-296 328h16c-181.152 0-312-146.848-312-328v-112" fill="#FFFFFF" p-id="1805"></path><path d="M228 374.992c0 8 84.496 234.496 304 232h-16c203-5.504 280-200 280-216 0 0-88-64-280-64s-288 48-288 48z" fill="#FFBAB0" p-id="1806"></path><path d="M220 170.992c0-37.552 123.688-68 296-68s296 30.448 296 68" fill="#FFFFFF" p-id="1807"></path><path d="M812 194.992a24 24 0 0 1-23.936-22.264c-11.04-16.336-100.104-45.736-272.064-45.736s-261.024 29.4-272.064 45.736a24 24 0 0 1-47.936-1.736c0-87.56 266.56-92 320-92s320 4.44 320 92a24 24 0 0 1-24 24zM790.304 399.32a16.008 16.008 0 0 1-15.944-14.6c-10.336-14.632-106.112-41.08-258.36-41.08-151.192 0-246.016 26.408-256.056 40.992a16 16 0 0 1-31.944-1.312c0-70.856 285.12-71.68 288-71.68 2.904 0 290.304 0.824 290.304 71.68a16 16 0 0 1-16 16z" fill="#783741" p-id="1808"></path><path d="M524 454.992c-2.96 0-296-0.824-296-71.672a16 16 0 0 1 31.92-1.584c12.272 16.656 122.008 41.256 264.08 41.256 148.608 0 241.048-26.296 250.344-40.792a16 16 0 0 1 31.96 1.12c0 70.856-270.776 71.672-282.304 71.672z" fill="#783741" p-id="1809"></path><path d="M520.16 606.992h16c-2.696 0-5.344-0.144-8.008-0.2-2.672 0.056-5.296 0.2-7.992 0.2z" fill="#FFFFFF" p-id="1810"></path><path d="M296.16 278.992v-112h-72v112c0 178.456 127.024 323.512 303.992 327.8a313.624 313.624 0 0 0 35.848-2.88C406.144 582.184 296.16 445.04 296.16 278.992z" fill="#FFFFFF" p-id="1811"></path><path d="M492 630.992h-16a24 24 0 1 1 0-48c160.152 0 272-125.008 272-304v-112a24 24 0 1 1 48 0v112c0 195.904-124.16 340.216-298.28 351.312a23.68 23.68 0 0 1-5.72 0.688z" fill="#783741" p-id="1812"></path><path d="M548 620h-32c-1.944 0-6.2 8.44-8 8-84.92-5.24-159.968-42.032-217.48-103.704C229.568 458.944 196 370.768 196 276v-112a24 24 0 1 1 48 0v112c0 170.48 119.808 299.712 279.984 303.896C679.848 575.8 788 452 788 276v-112a24 24 0 1 1 48 0v112c0 195.904-113.88 340.904-288 352-1.832 0.456 1.968-8 0-8z" fill="#783741" p-id="1813"></path><path d="M516 234.992c-143.928 0-312-22-312-84a16 16 0 0 1 32 0c0 14.32 86.096 52 280 52s280-37.68 280-52a16 16 0 0 1 32 0c0 62-168.072 84-312 84z" fill="#783741" p-id="1814"></path></svg>