<svg width="512" height="512" viewBox="0 0 512 512" fill="none" xmlns="http://www.w3.org/2000/svg">
<path d="M386.694 115.171L89.5464 115.874L84.9828 118.217L80.7453 120.794L76.8336 123.548L73.248 126.594L69.9883 129.816L67.0546 133.272L64.6099 136.846L62.4911 140.595L60.7798 144.52L59.5574 148.503L58.8239 152.604L58.5795 156.939V453.477L58.8239 457.754L59.5574 461.854L60.7798 465.838L62.4096 469.704L64.5284 473.453L66.9731 477.027L69.8253 480.425L73.085 483.647L76.6707 486.693L80.5008 489.505L84.7383 492.082L89.2204 494.426H386.694V124.954V115.171ZM212.11 342.993L209.013 342.876L203.227 341.997L200.457 341.294L197.034 340.005L193.856 338.482L191.004 336.666L188.477 334.557L186.359 332.273L184.647 329.812H239.573L237.861 332.273L235.743 334.557L233.216 336.666L230.364 338.482L227.186 340.005L223.763 341.294L220.993 341.997L215.207 342.876L212.11 342.993ZM512 156.939V453.477L511.755 457.519L511.103 461.444L510.044 465.252L508.496 468.943L506.621 472.575L504.34 476.031L501.732 479.312L498.798 482.475L495.457 485.404L491.953 488.157L488.123 490.735L483.967 493.078L479.566 495.246L475.003 497.12L470.195 498.702L465.224 500.108L460.09 501.162L454.793 501.983L449.333 502.451L443.628 502.627H409.157L413.476 500.577L417.551 498.351L421.463 495.949L425.211 493.371L428.715 490.618L431.893 487.689L437.598 481.421L440.043 478.081L442.243 474.625L444.117 471.052L445.666 467.302L446.888 463.553L447.784 459.687L448.273 455.703L448.518 451.603V390.913L448.273 389.389L447.784 388.042L446.969 386.753L445.829 385.64L444.443 384.644L442.895 383.824L441.102 383.238L439.228 382.828L437.109 382.711V283.475L439.228 283.357L441.102 282.947L442.895 282.361L444.443 281.541L445.829 280.546L446.969 279.432L447.784 278.144L448.273 276.796L448.518 275.273V158.697L448.273 154.596L447.784 150.671L446.888 146.805L445.666 143.055L444.117 139.306L442.243 135.733L440.124 132.276L437.679 128.937L434.99 125.715L431.975 122.669L425.374 117.045L421.626 114.409L417.714 112.007L413.639 109.781L409.32 107.789H443.628L449.333 107.965L454.793 108.434L460.09 109.195L465.224 110.308L470.195 111.656L475.003 113.296L479.566 115.171L483.967 117.28L488.123 119.623L491.953 122.2L495.457 124.954L498.798 127.941L501.732 131.105L504.34 134.385L506.621 137.783L508.496 141.415L510.044 145.106L511.103 148.913L511.755 152.838L512 156.939Z" fill="#88B9EF"/>
<path d="M436.912 308.782V334.616L437.072 336.081L437.631 337.486L438.429 338.717L439.548 339.888L440.906 340.884L442.424 341.646L444.181 342.29L446.018 342.642L448.095 342.817V382.77L446.018 382.887L444.181 383.297L442.424 383.883L440.906 384.703L439.548 385.699L438.429 386.812L437.631 388.101L437.072 389.448L436.912 390.971V451.661L436.752 454.942L435.554 461.151L434.356 464.549L432.518 468.298L431.32 470.407L428.844 473.864L425.808 477.32L422.533 480.308L416.542 484.701L411.19 487.689L407.835 489.27L401.684 491.497L397.211 492.668L392.578 493.605L384.19 494.484V115.991L392.578 116.87L397.211 117.748L401.684 118.978L407.835 121.205L411.19 122.728L416.542 125.715L421.575 129.347L424.291 131.691L428.764 136.553L432.518 142.06L434.356 145.984L435.474 149.324L436.752 155.475L436.912 158.755V275.332L437.072 276.855L437.631 278.202L438.429 279.491L439.548 280.663L442.424 282.42L444.181 283.006L446.018 283.416L448.095 283.533V300.58L446.018 300.697L444.181 301.108L442.424 301.693L440.906 302.513L439.548 303.451L438.429 304.622L437.631 305.853L437.072 307.259L436.912 308.782Z" fill="#508ACB"/>
<path d="M410.947 109.099L406.699 107.225L402.22 105.586L397.586 104.18L392.798 103.009L387.855 102.072L382.912 101.369L377.738 100.959L355.186 100.842L352.097 93.405L348.93 86.2605L345.455 79.4675L341.825 72.9672L337.964 66.7011L333.716 60.4351L329.314 54.579L324.757 48.9571L320.123 43.6866L315.258 38.7675L310.006 33.8483L304.677 29.3391L299.193 25.1227L293.633 21.3163L287.995 17.744L281.971 14.406L275.947 11.4194L269.768 8.78417L263.59 6.50028L257.257 4.56777L250.77 2.92806L244.205 1.63971L237.563 0.702734L230.844 0.175683L224.048 0L217.251 0.175683L210.532 0.702734L203.89 1.63971L197.326 2.92806L190.838 4.56777L184.582 6.50028L178.327 8.78417L172.225 11.4194L166.124 14.406L160.1 17.744L154.462 21.3163L148.902 25.1227L143.495 29.3391L138.167 33.8483L132.915 38.7675L128.049 43.6866L123.338 48.9571L118.782 54.5204L114.379 60.4351L110.209 66.7011L106.347 72.9672L102.717 79.4675L99.242 86.2605L95.9983 93.405L92.9863 100.784H75.6093L70.5893 100.959L65.7237 101.311L60.9354 101.896L56.3015 102.775L51.7449 103.829L46.1842 105.469L40.8553 107.401L35.8352 109.685L30.9697 112.262L26.413 115.073L22.1653 118.118L18.2265 121.456L14.5967 125.028L11.353 128.834L8.49543 132.758L6.02403 136.916L3.86156 141.308L2.2397 145.759L1.00401 150.326L0.30892 155.07L0 159.989V188.801L0.231696 190.265L0.695076 191.671L1.46739 192.9L2.54863 194.072L3.86156 195.067L5.40618 195.828L7.02803 196.473L8.88158 196.824L10.8124 197L12.8204 196.824L14.5967 196.473L16.2958 195.828L17.7632 195.067L20.1573 192.9L20.9296 191.671L21.4703 190.265L21.6247 188.801V159.989L21.7792 156.417L22.3198 152.962L23.1693 149.682L24.405 146.461L25.8724 143.299L27.6488 140.312L29.734 137.443L32.0509 134.691L34.6768 132.114L37.4571 129.713L40.4691 127.488L43.7901 125.438L47.1882 123.564L50.8181 121.983L54.6024 120.577L58.5412 119.348L62.6345 118.411L66.8049 117.766L71.1299 117.357L75.6093 117.181H372.486L378.973 117.474L383.607 118.059L388.086 118.996L392.489 120.226L398.358 122.393L404.768 125.672L408.784 128.366L411.719 130.533L414.345 132.934L418.67 137.794L422.223 143.299L424.771 149.272L425.853 153.547L426.47 159.989V276.526L426.702 278.048L427.166 279.395L427.938 280.684L429.019 281.855L430.332 282.792L431.877 283.612L433.498 284.197L435.352 284.607L437.283 284.724L439.291 284.607L441.067 284.197L442.766 283.612L444.234 282.792L445.546 281.855L446.628 280.684L447.4 279.395L447.863 278.048L448.095 276.526V159.989L447.863 155.89L447.4 151.966L446.55 148.101L445.392 144.353L443.925 140.605L442.148 137.033L440.14 133.578L437.823 130.24L435.275 127.019L429.405 121.104L426.161 118.352L422.609 115.717L418.902 113.316L415.04 111.09L410.947 109.099ZM115.538 100.842L118.936 93.0536L122.566 85.6749L126.505 78.7647L130.598 72.2059L135.154 65.647L139.866 59.6152L144.731 53.9934L149.828 48.7814L154.153 44.6821L158.633 40.8757L163.112 37.362L167.669 34.1411L172.303 31.2131L177.245 28.4021L182.188 25.884L187.208 23.7173L192.228 21.7847L197.326 20.145L202.577 18.7981L207.906 17.744L213.235 16.9827L218.564 16.5142L224.048 16.3386L229.531 16.5142L234.86 16.9827L240.189 17.744L245.518 18.7981L250.77 20.145L255.867 21.7847L260.887 23.7173L265.907 25.884L270.85 28.4021L275.792 31.2131L280.426 34.1411L284.983 37.362L289.462 40.8757L293.942 44.6821L298.344 48.7814L303.364 53.9934L308.23 59.6152L312.941 65.647L317.497 72.2059L321.591 78.7647L325.529 85.6749L329.159 93.0536L332.557 100.842H115.538ZM437.283 383.927L435.275 384.044L433.498 384.454L431.799 385.039L430.332 385.859L429.019 386.855L427.938 387.967L427.166 389.256L426.625 390.603L426.47 392.125V452.853L425.853 459.236L423.999 465.678L422.223 469.426L419.751 473.525L415.735 478.444L412.569 481.431L408.784 484.476L404.768 487.111L398.358 490.391L392.411 492.616L388.086 493.787L383.607 494.724L378.896 495.31L372.486 495.603H75.6093L71.1299 495.486L66.8049 495.076L62.6345 494.373L58.5412 493.436L54.6024 492.265L50.8181 490.859L47.1882 489.22L43.7901 487.346L40.4691 485.296L37.4571 483.071L34.6768 480.67L32.0509 478.093L29.734 475.341L27.6488 472.53L25.8724 469.485L24.405 466.322L23.1693 463.16L22.3198 459.822L21.7792 456.367L21.6247 452.853V328.704L21.4703 327.181L20.9296 325.834L20.1573 324.546L19.0761 323.375L17.8404 322.438L16.2958 321.618L14.5967 321.032L12.8204 320.622L10.8124 320.505L8.88158 320.622L7.02803 321.032L5.40618 321.618L3.86156 322.438L2.54863 323.375L1.54462 324.546L0.695076 325.834L0.231696 327.181L0 328.704V452.795L0.30892 457.714L1.00401 462.457L2.2397 467.025L3.86156 471.476L6.02403 475.868L8.49543 479.967L11.353 483.949L14.5967 487.697L18.3038 491.328L22.1653 494.607L26.413 497.711L30.9697 500.522L35.8352 503.099L40.9325 505.324L46.1842 507.315L51.7449 508.955L56.3015 510.009L60.9354 510.887L65.7237 511.473L70.5893 511.824L75.6093 512H372.486L377.738 511.824L382.835 511.414L387.778 510.77L392.643 509.833L397.432 508.662L401.988 507.257L406.467 505.617L410.792 503.801L414.886 501.752L418.747 499.526L426.007 494.549L429.328 491.796L432.34 488.868L437.823 482.602L440.14 479.264L442.148 475.809L443.925 472.237L445.392 468.489L446.55 464.741L447.4 460.876L447.863 456.894L448.095 452.795V392.125L447.863 390.603L447.4 389.256L446.628 387.967L445.546 386.855L444.234 385.859L442.766 385.039L441.067 384.454L439.214 384.044L437.283 383.927ZM10.8124 256.088L8.88158 256.264L7.02803 256.615L5.40618 257.201L3.86156 258.02L2.54863 259.016L1.54462 260.129L0.695076 261.417L0.231696 262.764L0 264.286V300.301L0.231696 301.766L0.695076 303.171L1.54462 304.401L2.54863 305.572L3.86156 306.509L5.40618 307.329L7.02803 307.973L8.88158 308.324L10.8124 308.441L12.8204 308.324L14.5967 307.973L16.2958 307.329L17.7632 306.509L19.0761 305.572L20.1573 304.401L20.9296 303.171L21.4703 301.766L21.6247 300.301V264.286L21.4703 262.764L20.9296 261.417L20.1573 260.129L19.0761 259.016L17.7632 258.02L16.2958 257.201L14.5967 256.615L12.8204 256.264L10.8124 256.088ZM10.8124 210.117L8.88158 210.234L7.02803 210.644L5.40618 211.23L3.86156 212.05L1.54462 214.158L0.695076 215.446L0.231696 216.793L0 218.316V235.182L0.231696 236.704L0.695076 238.051L1.54462 239.339L2.54863 240.452L3.86156 241.448L5.40618 242.267L7.02803 242.853L8.88158 243.204L10.8124 243.38L12.8204 243.204L14.5967 242.853L16.2958 242.267L17.7632 241.448L19.0761 240.452L20.1573 239.339L20.9296 238.051L21.4703 236.704L21.6247 235.182V218.316L21.4703 216.793L20.9296 215.446L20.1573 214.158L19.0761 213.045L16.2958 211.23L14.5967 210.644L12.8204 210.234L10.8124 210.117ZM448.095 309.964V335.79L447.863 337.254L447.4 338.659L446.628 339.889L445.546 341.06L444.234 342.056L442.766 342.817L441.067 343.461L439.291 343.812L437.283 343.988L435.275 343.812L433.498 343.461L431.799 342.817L430.332 342.056L429.019 341.06L427.938 339.889L427.166 338.659L426.625 337.254L426.47 335.79V309.964L426.625 308.441L427.166 307.095L427.938 305.806L429.019 304.635L430.332 303.698L431.799 302.878L433.498 302.293L435.275 301.883L437.283 301.766L439.291 301.883L441.067 302.234L442.766 302.878L444.234 303.698L445.546 304.635L446.628 305.806L447.4 307.036L447.863 308.441L448.095 309.964ZM154.54 284.9L152.3 284.783L148.207 283.904L146.353 283.202L144.113 281.972L142.183 280.508L140.561 278.81L139.634 277.404L138.553 274.3L138.321 272.602L138.553 270.904L139.634 267.859L140.561 266.395L142.183 264.696L144.113 263.232L146.353 262.002L148.284 261.3L152.3 260.48L154.54 260.363L156.779 260.48L160.872 261.3L162.726 262.002L164.966 263.232L166.897 264.696L168.518 266.395L169.445 267.859L170.604 270.904L170.758 272.602L170.604 274.3L169.445 277.404L168.518 278.81L166.897 280.508L164.966 281.972L162.726 283.202L160.872 283.904L156.779 284.783L154.54 284.9ZM277.337 272.602L277.569 270.904L278.65 267.8L279.577 266.395L281.199 264.696L283.129 263.232L285.369 262.002L287.3 261.3L291.316 260.48L293.556 260.304L295.795 260.48L299.889 261.3L301.742 262.002L303.982 263.232L305.913 264.696L307.534 266.395L309.156 269.323L309.62 270.904L309.774 272.602L309.156 275.881L307.534 278.81L305.913 280.508L303.982 281.972L301.742 283.202L299.889 283.904L295.795 284.783L293.556 284.9L291.316 284.783L287.3 283.904L285.369 283.202L283.129 281.972L281.199 280.508L279.577 278.81L278.65 277.404L277.569 274.3L277.337 272.602ZM263.049 314.649H185.046L183.115 314.766L181.261 315.176L179.64 315.762L178.095 316.581L176.782 317.577L175.778 318.69L174.929 319.978L174.465 321.325L174.233 322.848L174.465 325.951L174.929 328.996L175.701 331.924L178.172 337.546L179.871 340.182L183.887 345.101L186.282 347.385L191.688 351.484L197.866 354.939L201.187 356.344L208.37 358.687L212.077 359.507L215.938 360.092L219.954 360.444L224.048 360.561L228.218 360.444L232.157 360.092L236.018 359.507L239.803 358.687L243.433 357.633L246.908 356.344L253.473 353.299L259.265 349.551L264.208 345.101L268.301 340.182L271.313 334.794L272.394 331.924L273.167 328.996L273.63 325.951L273.862 322.848L273.63 321.325L273.167 319.978L272.394 318.69L271.313 317.577L270 316.581L268.533 315.762L266.834 315.176L264.98 314.766L263.049 314.649ZM224.048 344.222L221.113 344.105L215.629 343.227L213.003 342.524L209.76 341.236L206.748 339.713L204.045 337.898L201.651 335.79L199.643 333.506L198.021 331.046H250.074L248.453 333.506L246.445 335.79L244.05 337.898L241.347 339.713L238.335 341.236L235.092 342.524L232.466 343.227L226.982 344.105L224.048 344.222Z" fill="black"/>
<rect x="148" y="309" width="173" height="154" fill="#88B9EF"/>
<rect width="79.5885" height="11.903" rx="5.95152" transform="matrix(0.496492 0.868041 -0.863986 0.503516 193.284 322.921)" fill="black"/>
<rect width="79.5885" height="11.903" rx="5.95152" transform="matrix(0.496492 -0.868041 0.863986 0.503516 218.342 391.726)" fill="black"/>
</svg>
